<mxfile host="app.diagrams.net" modified="2023-04-07T14:55:59.043Z" agent="Mozilla/5.0 (Windows NT 10.0; Win64; x64) AppleWebKit/537.36 (KHTML, like Gecko) Chrome/112.0.0.0 Safari/537.36" etag="sLnA_GWXruerKkgB3cy1" version="21.1.5" type="github">
  <diagram id="R2lEEEUBdFMjLlhIrx00" name="Page-1">
    <mxGraphModel dx="1497" dy="2747" grid="1" gridSize="10" guides="1" tooltips="1" connect="1" arrows="1" fold="1" page="1" pageScale="1" pageWidth="850" pageHeight="1100" math="0" shadow="0" extFonts="Permanent Marker^https://fonts.googleapis.com/css?family=Permanent+Marker">
      <root>
        <mxCell id="0" />
        <mxCell id="1" parent="0" />
        <mxCell id="k7o5_xV8l02Oy5Of5oVu-1" value="" style="rounded=0;whiteSpace=wrap;html=1;" vertex="1" parent="1">
          <mxGeometry x="75" y="-970" width="110" height="50" as="geometry" />
        </mxCell>
        <mxCell id="k7o5_xV8l02Oy5Of5oVu-2" value="waiters" style="text;html=1;strokeColor=none;fillColor=none;align=center;verticalAlign=middle;whiteSpace=wrap;rounded=0;" vertex="1" parent="1">
          <mxGeometry x="100" y="-960" width="60" height="30" as="geometry" />
        </mxCell>
        <mxCell id="k7o5_xV8l02Oy5Of5oVu-8" value="" style="endArrow=none;html=1;rounded=0;" edge="1" parent="1">
          <mxGeometry width="50" height="50" relative="1" as="geometry">
            <mxPoint x="75" y="-965" as="sourcePoint" />
            <mxPoint y="-1030" as="targetPoint" />
          </mxGeometry>
        </mxCell>
        <mxCell id="k7o5_xV8l02Oy5Of5oVu-9" value="" style="ellipse;whiteSpace=wrap;html=1;" vertex="1" parent="1">
          <mxGeometry x="-45" y="-1058.75" width="60" height="30" as="geometry" />
        </mxCell>
        <mxCell id="k7o5_xV8l02Oy5Of5oVu-10" value="id" style="text;html=1;strokeColor=none;fillColor=none;align=center;verticalAlign=middle;whiteSpace=wrap;rounded=0;" vertex="1" parent="1">
          <mxGeometry x="-45" y="-1058.75" width="60" height="30" as="geometry" />
        </mxCell>
        <mxCell id="k7o5_xV8l02Oy5Of5oVu-11" value="" style="ellipse;whiteSpace=wrap;html=1;" vertex="1" parent="1">
          <mxGeometry x="95" y="-1050" width="65" height="40" as="geometry" />
        </mxCell>
        <mxCell id="k7o5_xV8l02Oy5Of5oVu-12" value="" style="ellipse;whiteSpace=wrap;html=1;" vertex="1" parent="1">
          <mxGeometry x="275" y="-1090" width="90" height="40" as="geometry" />
        </mxCell>
        <mxCell id="k7o5_xV8l02Oy5Of5oVu-13" value="" style="ellipse;whiteSpace=wrap;html=1;" vertex="1" parent="1">
          <mxGeometry x="-70" y="-1015" width="50" height="30" as="geometry" />
        </mxCell>
        <mxCell id="k7o5_xV8l02Oy5Of5oVu-14" value="" style="ellipse;whiteSpace=wrap;html=1;" vertex="1" parent="1">
          <mxGeometry x="-80" y="-952.5" width="70" height="40" as="geometry" />
        </mxCell>
        <mxCell id="k7o5_xV8l02Oy5Of5oVu-15" value="" style="ellipse;whiteSpace=wrap;html=1;" vertex="1" parent="1">
          <mxGeometry x="-12.5" y="-1110" width="90" height="40" as="geometry" />
        </mxCell>
        <mxCell id="k7o5_xV8l02Oy5Of5oVu-16" value="" style="ellipse;whiteSpace=wrap;html=1;" vertex="1" parent="1">
          <mxGeometry x="175" y="-1040" width="60" height="40" as="geometry" />
        </mxCell>
        <mxCell id="k7o5_xV8l02Oy5Of5oVu-17" value="name" style="text;html=1;strokeColor=none;fillColor=none;align=center;verticalAlign=middle;whiteSpace=wrap;rounded=0;" vertex="1" parent="1">
          <mxGeometry x="101.25" y="-1045" width="52.5" height="30" as="geometry" />
        </mxCell>
        <mxCell id="k7o5_xV8l02Oy5Of5oVu-18" value="egn" style="text;html=1;strokeColor=none;fillColor=none;align=center;verticalAlign=middle;whiteSpace=wrap;rounded=0;" vertex="1" parent="1">
          <mxGeometry x="-75" y="-1012.5" width="60" height="25" as="geometry" />
        </mxCell>
        <mxCell id="k7o5_xV8l02Oy5Of5oVu-19" value="phone" style="text;html=1;strokeColor=none;fillColor=none;align=center;verticalAlign=middle;whiteSpace=wrap;rounded=0;" vertex="1" parent="1">
          <mxGeometry x="180" y="-1035" width="50" height="30" as="geometry" />
        </mxCell>
        <mxCell id="k7o5_xV8l02Oy5Of5oVu-20" value="address" style="text;html=1;strokeColor=none;fillColor=none;align=center;verticalAlign=middle;whiteSpace=wrap;rounded=0;" vertex="1" parent="1">
          <mxGeometry x="-75" y="-947.5" width="60" height="30" as="geometry" />
        </mxCell>
        <mxCell id="k7o5_xV8l02Oy5Of5oVu-21" value="date_of_hiring" style="text;html=1;strokeColor=none;fillColor=none;align=center;verticalAlign=middle;whiteSpace=wrap;rounded=0;" vertex="1" parent="1">
          <mxGeometry x="2.5" y="-1105" width="60" height="30" as="geometry" />
        </mxCell>
        <mxCell id="k7o5_xV8l02Oy5Of5oVu-22" value="hourly_payment" style="text;html=1;strokeColor=none;fillColor=none;align=center;verticalAlign=middle;whiteSpace=wrap;rounded=0;" vertex="1" parent="1">
          <mxGeometry x="290" y="-1085" width="60" height="30" as="geometry" />
        </mxCell>
        <mxCell id="k7o5_xV8l02Oy5Of5oVu-23" value="" style="endArrow=none;html=1;rounded=0;" edge="1" parent="1">
          <mxGeometry width="50" height="50" relative="1" as="geometry">
            <mxPoint x="135" y="-970" as="sourcePoint" />
            <mxPoint x="125" y="-1010" as="targetPoint" />
          </mxGeometry>
        </mxCell>
        <mxCell id="k7o5_xV8l02Oy5Of5oVu-25" value="" style="endArrow=none;html=1;rounded=0;" edge="1" parent="1">
          <mxGeometry width="50" height="50" relative="1" as="geometry">
            <mxPoint x="163.75" y="-970" as="sourcePoint" />
            <mxPoint x="193.75" y="-1000" as="targetPoint" />
          </mxGeometry>
        </mxCell>
        <mxCell id="k7o5_xV8l02Oy5Of5oVu-26" value="" style="endArrow=none;html=1;rounded=0;" edge="1" parent="1">
          <mxGeometry width="50" height="50" relative="1" as="geometry">
            <mxPoint x="75" y="-935" as="sourcePoint" />
            <mxPoint x="-30" y="-990" as="targetPoint" />
          </mxGeometry>
        </mxCell>
        <mxCell id="k7o5_xV8l02Oy5Of5oVu-28" value="" style="endArrow=none;html=1;rounded=0;" edge="1" parent="1">
          <mxGeometry width="50" height="50" relative="1" as="geometry">
            <mxPoint x="20" y="-930" as="sourcePoint" />
            <mxPoint x="75" y="-930" as="targetPoint" />
            <Array as="points">
              <mxPoint x="-10" y="-930" />
              <mxPoint x="20" y="-930" />
            </Array>
          </mxGeometry>
        </mxCell>
        <mxCell id="k7o5_xV8l02Oy5Of5oVu-29" value="" style="endArrow=none;html=1;rounded=0;" edge="1" parent="1">
          <mxGeometry width="50" height="50" relative="1" as="geometry">
            <mxPoint x="50" y="-1070" as="sourcePoint" />
            <mxPoint x="125" y="-970" as="targetPoint" />
            <Array as="points" />
          </mxGeometry>
        </mxCell>
        <mxCell id="k7o5_xV8l02Oy5Of5oVu-30" value="" style="endArrow=none;html=1;rounded=0;" edge="1" parent="1">
          <mxGeometry width="50" height="50" relative="1" as="geometry">
            <mxPoint x="180" y="-970" as="sourcePoint" />
            <mxPoint x="305" y="-1050" as="targetPoint" />
          </mxGeometry>
        </mxCell>
        <mxCell id="k7o5_xV8l02Oy5Of5oVu-32" value="" style="rounded=0;whiteSpace=wrap;html=1;" vertex="1" parent="1">
          <mxGeometry x="60" y="-570" width="115" height="60" as="geometry" />
        </mxCell>
        <mxCell id="k7o5_xV8l02Oy5Of5oVu-33" value="waiters_payment" style="text;html=1;strokeColor=none;fillColor=none;align=center;verticalAlign=middle;whiteSpace=wrap;rounded=0;" vertex="1" parent="1">
          <mxGeometry x="88" y="-555" width="60" height="30" as="geometry" />
        </mxCell>
        <mxCell id="k7o5_xV8l02Oy5Of5oVu-34" value="" style="rhombus;whiteSpace=wrap;html=1;" vertex="1" parent="1">
          <mxGeometry x="96.25" y="-770" width="62.5" height="60" as="geometry" />
        </mxCell>
        <mxCell id="k7o5_xV8l02Oy5Of5oVu-35" value="waiter_id" style="text;html=1;strokeColor=none;fillColor=none;align=center;verticalAlign=middle;whiteSpace=wrap;rounded=0;" vertex="1" parent="1">
          <mxGeometry x="97.5" y="-755" width="60" height="30" as="geometry" />
        </mxCell>
        <mxCell id="k7o5_xV8l02Oy5Of5oVu-37" value="" style="endArrow=none;html=1;rounded=0;exitX=0.5;exitY=0;exitDx=0;exitDy=0;" edge="1" parent="1" source="k7o5_xV8l02Oy5Of5oVu-34">
          <mxGeometry width="50" height="50" relative="1" as="geometry">
            <mxPoint x="129.41" y="-860" as="sourcePoint" />
            <mxPoint x="129.41" y="-920" as="targetPoint" />
          </mxGeometry>
        </mxCell>
        <mxCell id="k7o5_xV8l02Oy5Of5oVu-38" value="" style="endArrow=none;html=1;rounded=0;exitX=0.588;exitY=-0.04;exitDx=0;exitDy=0;exitPerimeter=0;" edge="1" parent="1" source="k7o5_xV8l02Oy5Of5oVu-32">
          <mxGeometry width="50" height="50" relative="1" as="geometry">
            <mxPoint x="130" y="-740" as="sourcePoint" />
            <mxPoint x="128" y="-710" as="targetPoint" />
          </mxGeometry>
        </mxCell>
        <mxCell id="k7o5_xV8l02Oy5Of5oVu-41" value="" style="ellipse;whiteSpace=wrap;html=1;" vertex="1" parent="1">
          <mxGeometry x="35" y="-360" width="90" height="30" as="geometry" />
        </mxCell>
        <mxCell id="k7o5_xV8l02Oy5Of5oVu-42" value="" style="ellipse;whiteSpace=wrap;html=1;" vertex="1" parent="1">
          <mxGeometry x="-42.5" y="-385" width="95" height="20" as="geometry" />
        </mxCell>
        <mxCell id="k7o5_xV8l02Oy5Of5oVu-43" value="" style="ellipse;whiteSpace=wrap;html=1;" vertex="1" parent="1">
          <mxGeometry x="-2.5" y="-525" width="50" height="30" as="geometry" />
        </mxCell>
        <mxCell id="k7o5_xV8l02Oy5Of5oVu-44" value="" style="ellipse;whiteSpace=wrap;html=1;" vertex="1" parent="1">
          <mxGeometry x="97.5" y="-380" width="60" height="30" as="geometry" />
        </mxCell>
        <mxCell id="k7o5_xV8l02Oy5Of5oVu-45" value="" style="ellipse;whiteSpace=wrap;html=1;" vertex="1" parent="1">
          <mxGeometry x="-27.5" y="-565" width="50" height="25" as="geometry" />
        </mxCell>
        <mxCell id="k7o5_xV8l02Oy5Of5oVu-46" value="" style="ellipse;whiteSpace=wrap;html=1;" vertex="1" parent="1">
          <mxGeometry x="-27.5" y="-450" width="60" height="30" as="geometry" />
        </mxCell>
        <mxCell id="k7o5_xV8l02Oy5Of5oVu-49" value="" style="ellipse;whiteSpace=wrap;html=1;" vertex="1" parent="1">
          <mxGeometry y="-620" width="60" height="30" as="geometry" />
        </mxCell>
        <mxCell id="k7o5_xV8l02Oy5Of5oVu-50" value="id" style="text;html=1;strokeColor=none;fillColor=none;align=center;verticalAlign=middle;whiteSpace=wrap;rounded=0;" vertex="1" parent="1">
          <mxGeometry x="-2.5" y="-620" width="60" height="30" as="geometry" />
        </mxCell>
        <mxCell id="k7o5_xV8l02Oy5Of5oVu-51" value="" style="endArrow=none;html=1;rounded=0;" edge="1" parent="1">
          <mxGeometry width="50" height="50" relative="1" as="geometry">
            <mxPoint x="60" y="-560" as="sourcePoint" />
            <mxPoint x="40" y="-590" as="targetPoint" />
          </mxGeometry>
        </mxCell>
        <mxCell id="k7o5_xV8l02Oy5Of5oVu-53" value="month&lt;br&gt;" style="text;html=1;strokeColor=none;fillColor=none;align=center;verticalAlign=middle;whiteSpace=wrap;rounded=0;" vertex="1" parent="1">
          <mxGeometry x="-32.5" y="-570" width="60" height="30" as="geometry" />
        </mxCell>
        <mxCell id="k7o5_xV8l02Oy5Of5oVu-54" value="year" style="text;html=1;strokeColor=none;fillColor=none;align=center;verticalAlign=middle;whiteSpace=wrap;rounded=0;" vertex="1" parent="1">
          <mxGeometry x="97.5" y="-380" width="60" height="30" as="geometry" />
        </mxCell>
        <mxCell id="k7o5_xV8l02Oy5Of5oVu-55" value="day&lt;br&gt;" style="text;html=1;strokeColor=none;fillColor=none;align=center;verticalAlign=middle;whiteSpace=wrap;rounded=0;" vertex="1" parent="1">
          <mxGeometry x="-7.5" y="-525" width="60" height="30" as="geometry" />
        </mxCell>
        <mxCell id="k7o5_xV8l02Oy5Of5oVu-56" value="tips" style="text;html=1;strokeColor=none;fillColor=none;align=center;verticalAlign=middle;whiteSpace=wrap;rounded=0;" vertex="1" parent="1">
          <mxGeometry x="-27.5" y="-450" width="60" height="30" as="geometry" />
        </mxCell>
        <mxCell id="k7o5_xV8l02Oy5Of5oVu-57" value="hours_worked" style="text;html=1;strokeColor=none;fillColor=none;align=center;verticalAlign=middle;whiteSpace=wrap;rounded=0;" vertex="1" parent="1">
          <mxGeometry x="50" y="-360" width="60" height="30" as="geometry" />
        </mxCell>
        <mxCell id="k7o5_xV8l02Oy5Of5oVu-58" value="daily_payment" style="text;html=1;strokeColor=none;fillColor=none;align=center;verticalAlign=middle;whiteSpace=wrap;rounded=0;" vertex="1" parent="1">
          <mxGeometry x="-25" y="-390" width="60" height="30" as="geometry" />
        </mxCell>
        <mxCell id="k7o5_xV8l02Oy5Of5oVu-59" value="" style="endArrow=none;html=1;rounded=0;" edge="1" parent="1">
          <mxGeometry width="50" height="50" relative="1" as="geometry">
            <mxPoint x="40" y="-520" as="sourcePoint" />
            <mxPoint x="60" y="-540" as="targetPoint" />
          </mxGeometry>
        </mxCell>
        <mxCell id="k7o5_xV8l02Oy5Of5oVu-60" value="" style="endArrow=none;html=1;rounded=0;" edge="1" parent="1">
          <mxGeometry width="50" height="50" relative="1" as="geometry">
            <mxPoint x="17.5" y="-450" as="sourcePoint" />
            <mxPoint x="77.5" y="-510" as="targetPoint" />
          </mxGeometry>
        </mxCell>
        <mxCell id="k7o5_xV8l02Oy5Of5oVu-61" value="" style="endArrow=none;html=1;rounded=0;" edge="1" parent="1">
          <mxGeometry width="50" height="50" relative="1" as="geometry">
            <mxPoint x="27.5" y="-380" as="sourcePoint" />
            <mxPoint x="112.5" y="-510" as="targetPoint" />
          </mxGeometry>
        </mxCell>
        <mxCell id="k7o5_xV8l02Oy5Of5oVu-62" value="" style="endArrow=none;html=1;rounded=0;" edge="1" parent="1">
          <mxGeometry width="50" height="50" relative="1" as="geometry">
            <mxPoint x="130.5" y="-380" as="sourcePoint" />
            <mxPoint x="167.5" y="-510" as="targetPoint" />
          </mxGeometry>
        </mxCell>
        <mxCell id="k7o5_xV8l02Oy5Of5oVu-63" value="" style="endArrow=none;html=1;rounded=0;" edge="1" parent="1">
          <mxGeometry width="50" height="50" relative="1" as="geometry">
            <mxPoint x="67.5" y="-360" as="sourcePoint" />
            <mxPoint x="148" y="-510" as="targetPoint" />
          </mxGeometry>
        </mxCell>
        <mxCell id="k7o5_xV8l02Oy5Of5oVu-64" value="" style="endArrow=none;html=1;rounded=0;" edge="1" parent="1">
          <mxGeometry width="50" height="50" relative="1" as="geometry">
            <mxPoint x="17.5" y="-550" as="sourcePoint" />
            <mxPoint x="60" y="-550" as="targetPoint" />
          </mxGeometry>
        </mxCell>
        <mxCell id="k7o5_xV8l02Oy5Of5oVu-66" value="" style="rounded=0;whiteSpace=wrap;html=1;" vertex="1" parent="1">
          <mxGeometry x="460" y="-970" width="120" height="50" as="geometry" />
        </mxCell>
        <mxCell id="k7o5_xV8l02Oy5Of5oVu-67" value="tables" style="text;html=1;strokeColor=none;fillColor=none;align=center;verticalAlign=middle;whiteSpace=wrap;rounded=0;" vertex="1" parent="1">
          <mxGeometry x="485" y="-960" width="65" height="25" as="geometry" />
        </mxCell>
        <mxCell id="k7o5_xV8l02Oy5Of5oVu-68" value="" style="ellipse;whiteSpace=wrap;html=1;" vertex="1" parent="1">
          <mxGeometry x="425" y="-1030" width="60" height="30" as="geometry" />
        </mxCell>
        <mxCell id="k7o5_xV8l02Oy5Of5oVu-69" value="id" style="text;html=1;strokeColor=none;fillColor=none;align=center;verticalAlign=middle;whiteSpace=wrap;rounded=0;" vertex="1" parent="1">
          <mxGeometry x="425" y="-1030" width="60" height="30" as="geometry" />
        </mxCell>
        <mxCell id="k7o5_xV8l02Oy5Of5oVu-70" value="" style="endArrow=none;html=1;rounded=0;" edge="1" parent="1">
          <mxGeometry width="50" height="50" relative="1" as="geometry">
            <mxPoint x="480" y="-970" as="sourcePoint" />
            <mxPoint x="460" y="-1000" as="targetPoint" />
          </mxGeometry>
        </mxCell>
        <mxCell id="k7o5_xV8l02Oy5Of5oVu-71" value="" style="ellipse;whiteSpace=wrap;html=1;" vertex="1" parent="1">
          <mxGeometry x="473.75" y="-1070" width="70" height="20" as="geometry" />
        </mxCell>
        <mxCell id="k7o5_xV8l02Oy5Of5oVu-72" value="" style="ellipse;whiteSpace=wrap;html=1;" vertex="1" parent="1">
          <mxGeometry x="520" y="-1028.75" width="70" height="20" as="geometry" />
        </mxCell>
        <mxCell id="k7o5_xV8l02Oy5Of5oVu-74" value="" style="ellipse;whiteSpace=wrap;html=1;direction=south;" vertex="1" parent="1">
          <mxGeometry x="585" y="-1041.25" width="72.5" height="22.5" as="geometry" />
        </mxCell>
        <mxCell id="k7o5_xV8l02Oy5Of5oVu-75" value="seats" style="text;html=1;strokeColor=none;fillColor=none;align=center;verticalAlign=middle;whiteSpace=wrap;rounded=0;" vertex="1" parent="1">
          <mxGeometry x="478.75" y="-1075" width="60" height="30" as="geometry" />
        </mxCell>
        <mxCell id="k7o5_xV8l02Oy5Of5oVu-78" value="is_reserved" style="text;html=1;strokeColor=none;fillColor=none;align=center;verticalAlign=middle;whiteSpace=wrap;rounded=0;" vertex="1" parent="1">
          <mxGeometry x="591.25" y="-1045" width="60" height="30" as="geometry" />
        </mxCell>
        <mxCell id="k7o5_xV8l02Oy5Of5oVu-80" value="is_fancy&lt;br&gt;" style="text;html=1;strokeColor=none;fillColor=none;align=center;verticalAlign=middle;whiteSpace=wrap;rounded=0;" vertex="1" parent="1">
          <mxGeometry x="525" y="-1035" width="60" height="30" as="geometry" />
        </mxCell>
        <mxCell id="k7o5_xV8l02Oy5Of5oVu-82" value="" style="endArrow=none;html=1;rounded=0;" edge="1" parent="1">
          <mxGeometry width="50" height="50" relative="1" as="geometry">
            <mxPoint x="540" y="-970" as="sourcePoint" />
            <mxPoint x="550" y="-1010" as="targetPoint" />
            <Array as="points">
              <mxPoint x="540" y="-970" />
            </Array>
          </mxGeometry>
        </mxCell>
        <mxCell id="k7o5_xV8l02Oy5Of5oVu-83" value="" style="endArrow=none;html=1;rounded=0;exitX=0.43;exitY=-0.048;exitDx=0;exitDy=0;exitPerimeter=0;" edge="1" parent="1" source="k7o5_xV8l02Oy5Of5oVu-66">
          <mxGeometry width="50" height="50" relative="1" as="geometry">
            <mxPoint x="530" y="-985" as="sourcePoint" />
            <mxPoint x="510" y="-1050" as="targetPoint" />
          </mxGeometry>
        </mxCell>
        <mxCell id="k7o5_xV8l02Oy5Of5oVu-85" value="" style="endArrow=none;html=1;rounded=0;" edge="1" parent="1">
          <mxGeometry width="50" height="50" relative="1" as="geometry">
            <mxPoint x="570" y="-970" as="sourcePoint" />
            <mxPoint x="600" y="-1000" as="targetPoint" />
            <Array as="points">
              <mxPoint x="600" y="-1000" />
              <mxPoint x="620" y="-1020" />
            </Array>
          </mxGeometry>
        </mxCell>
        <mxCell id="k7o5_xV8l02Oy5Of5oVu-88" value="" style="rhombus;whiteSpace=wrap;html=1;" vertex="1" parent="1">
          <mxGeometry x="295" y="-975" width="70" height="55" as="geometry" />
        </mxCell>
        <mxCell id="k7o5_xV8l02Oy5Of5oVu-89" value="waiter_id&lt;br&gt;" style="text;html=1;strokeColor=none;fillColor=none;align=center;verticalAlign=middle;whiteSpace=wrap;rounded=0;" vertex="1" parent="1">
          <mxGeometry x="300" y="-962.5" width="60" height="30" as="geometry" />
        </mxCell>
        <mxCell id="k7o5_xV8l02Oy5Of5oVu-92" value="" style="endArrow=none;html=1;rounded=0;exitX=1;exitY=0.5;exitDx=0;exitDy=0;" edge="1" parent="1" source="k7o5_xV8l02Oy5Of5oVu-1">
          <mxGeometry width="50" height="50" relative="1" as="geometry">
            <mxPoint x="225" y="-948" as="sourcePoint" />
            <mxPoint x="295" y="-948" as="targetPoint" />
          </mxGeometry>
        </mxCell>
        <mxCell id="k7o5_xV8l02Oy5Of5oVu-93" value="" style="endArrow=none;html=1;rounded=0;" edge="1" parent="1" target="k7o5_xV8l02Oy5Of5oVu-66">
          <mxGeometry width="50" height="50" relative="1" as="geometry">
            <mxPoint x="365" y="-948" as="sourcePoint" />
            <mxPoint x="435" y="-948" as="targetPoint" />
          </mxGeometry>
        </mxCell>
        <mxCell id="k7o5_xV8l02Oy5Of5oVu-94" value="" style="rounded=0;whiteSpace=wrap;html=1;" vertex="1" parent="1">
          <mxGeometry x="275" y="-570" width="120" height="60" as="geometry" />
        </mxCell>
        <mxCell id="k7o5_xV8l02Oy5Of5oVu-95" value="reservations&lt;br&gt;" style="text;html=1;strokeColor=none;fillColor=none;align=center;verticalAlign=middle;whiteSpace=wrap;rounded=0;" vertex="1" parent="1">
          <mxGeometry x="305" y="-555" width="60" height="30" as="geometry" />
        </mxCell>
        <mxCell id="k7o5_xV8l02Oy5Of5oVu-96" value="" style="ellipse;whiteSpace=wrap;html=1;" vertex="1" parent="1">
          <mxGeometry x="230" y="-470" width="60" height="30" as="geometry" />
        </mxCell>
        <mxCell id="k7o5_xV8l02Oy5Of5oVu-97" value="id" style="text;html=1;strokeColor=none;fillColor=none;align=center;verticalAlign=middle;whiteSpace=wrap;rounded=0;" vertex="1" parent="1">
          <mxGeometry x="230" y="-470" width="60" height="30" as="geometry" />
        </mxCell>
        <mxCell id="k7o5_xV8l02Oy5Of5oVu-98" value="" style="endArrow=none;html=1;rounded=0;" edge="1" parent="1">
          <mxGeometry width="50" height="50" relative="1" as="geometry">
            <mxPoint x="270" y="-470" as="sourcePoint" />
            <mxPoint x="290" y="-510" as="targetPoint" />
          </mxGeometry>
        </mxCell>
        <mxCell id="k7o5_xV8l02Oy5Of5oVu-99" value="" style="ellipse;whiteSpace=wrap;html=1;" vertex="1" parent="1">
          <mxGeometry x="400" y="-500" width="90" height="40" as="geometry" />
        </mxCell>
        <mxCell id="k7o5_xV8l02Oy5Of5oVu-100" value="" style="ellipse;whiteSpace=wrap;html=1;" vertex="1" parent="1">
          <mxGeometry x="270" y="-390" width="100" height="30" as="geometry" />
        </mxCell>
        <mxCell id="k7o5_xV8l02Oy5Of5oVu-101" value="" style="ellipse;whiteSpace=wrap;html=1;" vertex="1" parent="1">
          <mxGeometry x="350" y="-440" width="120" height="30" as="geometry" />
        </mxCell>
        <mxCell id="k7o5_xV8l02Oy5Of5oVu-102" value="" style="ellipse;whiteSpace=wrap;html=1;" vertex="1" parent="1">
          <mxGeometry x="210" y="-430" width="120" height="30" as="geometry" />
        </mxCell>
        <mxCell id="k7o5_xV8l02Oy5Of5oVu-104" value="client_phone" style="text;html=1;strokeColor=none;fillColor=none;align=center;verticalAlign=middle;whiteSpace=wrap;rounded=0;" vertex="1" parent="1">
          <mxGeometry x="415" y="-495" width="60" height="30" as="geometry" />
        </mxCell>
        <mxCell id="k7o5_xV8l02Oy5Of5oVu-105" value="client_second_name" style="text;html=1;strokeColor=none;fillColor=none;align=center;verticalAlign=middle;whiteSpace=wrap;rounded=0;" vertex="1" parent="1">
          <mxGeometry x="380" y="-440" width="60" height="30" as="geometry" />
        </mxCell>
        <mxCell id="k7o5_xV8l02Oy5Of5oVu-106" value="client_first_name" style="text;html=1;strokeColor=none;fillColor=none;align=center;verticalAlign=middle;whiteSpace=wrap;rounded=0;" vertex="1" parent="1">
          <mxGeometry x="282.5" y="-390" width="75" height="30" as="geometry" />
        </mxCell>
        <mxCell id="k7o5_xV8l02Oy5Of5oVu-107" value="reservation_date" style="text;html=1;strokeColor=none;fillColor=none;align=center;verticalAlign=middle;whiteSpace=wrap;rounded=0;" vertex="1" parent="1">
          <mxGeometry x="240" y="-430" width="60" height="30" as="geometry" />
        </mxCell>
        <mxCell id="k7o5_xV8l02Oy5Of5oVu-110" value="" style="endArrow=none;html=1;rounded=0;" edge="1" parent="1">
          <mxGeometry width="50" height="50" relative="1" as="geometry">
            <mxPoint x="290" y="-430" as="sourcePoint" />
            <mxPoint x="325" y="-510" as="targetPoint" />
          </mxGeometry>
        </mxCell>
        <mxCell id="k7o5_xV8l02Oy5Of5oVu-112" value="" style="endArrow=none;html=1;rounded=0;" edge="1" parent="1">
          <mxGeometry width="50" height="50" relative="1" as="geometry">
            <mxPoint x="340" y="-390" as="sourcePoint" />
            <mxPoint x="360" y="-510" as="targetPoint" />
          </mxGeometry>
        </mxCell>
        <mxCell id="k7o5_xV8l02Oy5Of5oVu-113" value="" style="endArrow=none;html=1;rounded=0;" edge="1" parent="1">
          <mxGeometry width="50" height="50" relative="1" as="geometry">
            <mxPoint x="390" y="-440" as="sourcePoint" />
            <mxPoint x="390" y="-510" as="targetPoint" />
          </mxGeometry>
        </mxCell>
        <mxCell id="k7o5_xV8l02Oy5Of5oVu-114" value="" style="endArrow=none;html=1;rounded=0;" edge="1" parent="1">
          <mxGeometry width="50" height="50" relative="1" as="geometry">
            <mxPoint x="445" y="-500" as="sourcePoint" />
            <mxPoint x="395" y="-530" as="targetPoint" />
            <Array as="points">
              <mxPoint x="445" y="-500" />
            </Array>
          </mxGeometry>
        </mxCell>
        <mxCell id="k7o5_xV8l02Oy5Of5oVu-115" value="" style="rhombus;whiteSpace=wrap;html=1;" vertex="1" parent="1">
          <mxGeometry x="282.5" y="-740" width="110" height="80" as="geometry" />
        </mxCell>
        <mxCell id="k7o5_xV8l02Oy5Of5oVu-116" value="reservation_table&lt;br&gt;" style="text;html=1;strokeColor=none;fillColor=none;align=center;verticalAlign=middle;whiteSpace=wrap;rounded=0;" vertex="1" parent="1">
          <mxGeometry x="307.5" y="-720" width="60" height="35" as="geometry" />
        </mxCell>
        <mxCell id="k7o5_xV8l02Oy5Of5oVu-117" value="" style="endArrow=none;html=1;rounded=0;" edge="1" parent="1">
          <mxGeometry width="50" height="50" relative="1" as="geometry">
            <mxPoint x="337" y="-570" as="sourcePoint" />
            <mxPoint x="337" y="-660" as="targetPoint" />
          </mxGeometry>
        </mxCell>
        <mxCell id="k7o5_xV8l02Oy5Of5oVu-118" value="" style="endArrow=none;html=1;rounded=0;" edge="1" parent="1">
          <mxGeometry width="50" height="50" relative="1" as="geometry">
            <mxPoint x="337" y="-740" as="sourcePoint" />
            <mxPoint x="337" y="-830" as="targetPoint" />
          </mxGeometry>
        </mxCell>
        <mxCell id="k7o5_xV8l02Oy5Of5oVu-119" value="" style="endArrow=none;html=1;rounded=0;" edge="1" parent="1">
          <mxGeometry width="50" height="50" relative="1" as="geometry">
            <mxPoint x="335" y="-830" as="sourcePoint" />
            <mxPoint x="520" y="-830" as="targetPoint" />
          </mxGeometry>
        </mxCell>
        <mxCell id="k7o5_xV8l02Oy5Of5oVu-120" value="" style="endArrow=none;html=1;rounded=0;" edge="1" parent="1">
          <mxGeometry width="50" height="50" relative="1" as="geometry">
            <mxPoint x="520" y="-830" as="sourcePoint" />
            <mxPoint x="520" y="-920" as="targetPoint" />
            <Array as="points">
              <mxPoint x="520" y="-900" />
            </Array>
          </mxGeometry>
        </mxCell>
      </root>
    </mxGraphModel>
  </diagram>
</mxfile>
